# xmcd
#
# Track frame offsets:
#	150
#	13381
#	24466
#	29978
#	46088
#	54933
#	70982
#	80096
#	91315
#	102970
#	116843
#	128937
#	141240
#	154613
#	169456
#	179840
#	191998
#	205857
#	217468
#	229515
#
# Disc length: 3211 seconds
# Revision: 0
# Processed by: cddbd v1.5.2PL0 Copyright (c) Steve Scherf et al.
# Submitted via: dBpowerAMP V12.0
#
DISCID=360c8914
DTITLE=Ronny CD2 - Das Beste - Das große Lebenswerk
DYEAR=2016
DGENRE=Volkstümlich
TTITLE0=De Hamborger Veermaster
TTITLE1=Das Haus am alten Ohio
TTITLE2=s ist Feierabend
TTITLE3=Wolga-Lied
TTITLE4=Goodnight Irene 
TTITLE5=Keiner kann den Kreis durchbrechen (Will The Circle Be Unbroken)
TTITLE6=Fern in Idaho
TTITLE7=Schwarze Reiter ziehen durch die Nacht
TTITLE8=Sweet Marylie
TTITLE9=Wenn Du einsam bist
TTITLE10=Musst nicht weinen um mich
TTITLE11=Kein Gold im Blue River
TTITLE12=Mexikanische Serenade (South Of The Border)
TTITLE13=Wabash Cannon Ball
TTITLE14=Rosemarie
TTITLE15=Lass die Sonne wieder scheinen
TTITLE16=Im grünen Wald
TTITLE17=Sterne funkeln in der Nacht
TTITLE18=Anja, Anja
TTITLE19=Ganz allein
EXTD=
EXTT0=
EXTT1=
EXTT2=
EXTT3=
EXTT4=
EXTT5=
EXTT6=
EXTT7=
EXTT8=
EXTT9=
EXTT10=
EXTT11=
EXTT12=
EXTT13=
EXTT14=
EXTT15=
EXTT16=
EXTT17=
EXTT18=
EXTT19=
PLAYORDER=
